<svg xmlns="http://www.w3.org/2000/svg" viewBox="0 0 270.64 315.88"><defs><style>.cls-1{fill:#ebf7e7;}.cls-2{fill:#fcc300;}.cls-3{fill:#57c32f;}</style></defs><g id="Layer_2" data-name="Layer 2"><g id="Layer_1-2" data-name="Layer 1"><circle class="cls-1" cx="135.32" cy="180.56" r="135.32"/><path class="cls-2" d="M128.57,81.05c10.18-20.87,29.42-38.7,52.84-42.53,44.71-7.31,71.4,35.17,61.15,75.32-8.88,34.78-39.48,56.52-66.28,77.41-20.63,16.08-51,37.58-43.11,67.94-40.23-44.57,64.27-97.37,82.93-127.33C230,109.53,234.21,73,208.38,57.7,180.2,41,146.91,58.12,128.57,81.05Z"/><path class="cls-2" d="M123.29,79.84c-8.68-17.8-25.09-33-45.06-36.28-38.14-6.23-60.9,30-52.16,64.24,7.58,29.66,33.67,48.2,56.54,66,17.58,13.71,43.49,32,36.76,57.94,34.31-38-54.82-83.05-70.73-108.6-11.86-19-15.45-50.16,6.59-63.25C79.26,45.65,107.65,60.28,123.29,79.84Z"/><circle class="cls-2" cx="221.42" cy="25.01" r="25.01"/><circle class="cls-2" cx="54.4" cy="28.91" r="21.11"/><circle class="cls-3" cx="138.37" cy="127.87" r="12.37" transform="translate(-38.4 62.69) rotate(-22.5)"/><path class="cls-3" d="M190.91,107.35c1,15.64-13.56,26.06-31.19,29.51-17.27,3.38-21.35,11.63-21.35,11.63s-4.08-8.25-21.36-11.63C99.38,133.41,84.84,123,85.83,107.35c0,0-7.15,16.64,8.06,30.58,17,15.53,36.26,15.19,44.48,40.77,8.22-25.58,27.53-25.24,44.48-40.77C198.06,124,190.91,107.35,190.91,107.35Z"/></g></g></svg>