<svg xmlns="http://www.w3.org/2000/svg" viewBox="0 0 1853.1 596.25"><defs><style>.cls-1,.cls-8{fill:#ebf7e7;}.cls-2,.cls-3,.cls-4,.cls-5{fill:none;stroke-linecap:round;stroke-linejoin:round;}.cls-2{stroke:#57c32f;stroke-width:10px;}.cls-3{stroke:#fa8300;stroke-width:9.35px;}.cls-4{stroke:#330833;stroke-width:9.74px;}.cls-5{stroke:#e90506;stroke-width:8.77px;}.cls-6{font-size:200px;fill:#57c32f;}.cls-6,.cls-8{font-family:FacultyGlyphic-Regular, Faculty Glyphic;}.cls-7{letter-spacing:-0.04em;}.cls-8{font-size:135px;}</style></defs><g id="Layer_2" data-name="Layer 2"><g id="Layer_1-2" data-name="Layer 1"><polygon class="cls-1" points="421.61 0 174.64 0 0 174.64 0 421.61 174.64 596.25 421.61 596.25 596.25 421.61 596.25 174.64 421.61 0"/><path class="cls-2" d="M126.23,266.07c-37.53-45.72-8.59-104.74,30-100,0,0-21-15.9-11.64-42.87a49.55,49.55,0,0,1,36.84-32.5c16.13-3.19,37.36,1,53.22,34.25"/><path class="cls-2" d="M204,215.19c-14.28-41.84-19.08-94.31,48.71-90.75,0,0-6.84-38.57,27.12-53.26a51,51,0,0,1,40.32,0c34,14.69,27.12,53.26,27.12,53.26C459.08,118.58,373.49,265,373.49,265,362,283.21,353,303.22,346,323.31c-6.57,18.83-9.67,29.4-13.23,46.93"/><path class="cls-2" d="M490.51,207.54c-4.67-25.32-23.9-44.23-46.41-41.45,0,0,21-15.9,11.64-42.87a49.53,49.53,0,0,0-36.83-32.5c-16.13-3.19-37.36,1-53.22,34.25"/><line class="cls-2" x1="298.13" y1="259.15" x2="298.13" y2="172.6"/><polyline class="cls-2" points="257.85 200.47 300.15 237.24 338.4 198.99"/><path class="cls-3" d="M312.45,385.8c19.93-60.56-16.79-100.88-16.79-100.88-28.72-35-74.36-11.3-74.36-11.3"/><path class="cls-3" d="M200.63,273.62s-45.63-23.68-74.35,11.3c0,0-48.8,60.56,0,137.17,0,0,24.1,37.14,53.75,38.78a15.88,15.88,0,0,0,12.7-5.23c4.39-4.88,11.82-9.21,18.45-9.35"/><path class="cls-3" d="M186.26,284.14s23.82,26.82,50.48.84"/><path class="cls-3" d="M202.42,292.94c.58-9.49,1.69-32.15,1.29-33.95-1.13-5-5.6-4.44-9.55-7.05-1.07-.71-9.22-6-5.4-13,4.84-9,14-6.38,17.5-5,10.28,4.11,11.33,14.67,12.22,19.87,2.63,15.37,1.08,22.24,1.22,38.37"/><path class="cls-4" d="M486.45,395.65C500,376.24,507,362.13,516.74,337a69.2,69.2,0,0,0-.39-51.72,62.82,62.82,0,0,0-26-30.29s-58.79-41-105.16,64.6c0,0-16.57,74.11-122.14,102.67,0,0-67,19.46-43.66,77.43s138.94,15.6,163.31,0A189.73,189.73,0,0,0,404,485.58"/><path class="cls-4" d="M476.36,248.93s12.55-34.66,36.77-41.49,18.46,16.23,15.53,20.74c-8.15,12.52-25.62,12.1-25.23,37.13"/><path class="cls-5" d="M375.54,367.71s-39,25.8-19.88,69.21c0,0,9.46,20.28,36.76,29.66a62.17,62.17,0,0,0,40.52,0c27-9.4,35.93-29.62,35.93-29.62C488,393.51,449,367.71,449,367.71"/><path class="cls-5" d="M437.4,356.41c6.74,2.75,12.76,8,15,14.9a59.13,59.13,0,0,1-23.09,1.37,43.32,43.32,0,0,0,.53,16.48l-9.8-6a26.1,26.1,0,0,1-5.53-4.12,8.73,8.73,0,0,1-2.59-6.22c-1.37,6.25-5.68,11.62-11,15.17s-11.64,5.39-18,6.33a.68.68,0,0,1-.92-.72,49.23,49.23,0,0,1,1.11-21.29,1.58,1.58,0,0,0,.09-.8,1.53,1.53,0,0,0-.75-.82c-4.95-3.23-10.74-5.36-14.77-9.67,7.5-5.38,16.85-7.62,26.06-8.21,4.17-.26,8.56-.17,12.23,1.82l-5.62-16.38a2.25,2.25,0,0,1-.1-1.79,2.17,2.17,0,0,1,1.24-.85,36.17,36.17,0,0,1,14-2.26q0,4.43,0,8.85c0,2.93,0,5.87.06,8.8,0,1-.15,2,1.11,2.14s2.6,0,3.88.08a63.53,63.53,0,0,1,8.15.8,41.42,41.42,0,0,1,7.83,2.06A5.76,5.76,0,0,1,437.4,356.41Z"/><text class="cls-6" transform="translate(728.61 266.77)">Or<tspan class="cls-7" x="254.8" y="0">t</tspan><tspan x="324" y="0">oPuglia</tspan></text><text class="cls-8" transform="translate(728.61 460.14)">I sapori di casa</text></g></g></svg>