<svg xmlns="http://www.w3.org/2000/svg" viewBox="0 0 270.64 298.07"><defs><style>.cls-1{fill:#ebf7e7;}.cls-2,.cls-3,.cls-4,.cls-5{fill:none;stroke-miterlimit:10;stroke-width:10px;}.cls-2,.cls-5{stroke:#fcc300;}.cls-3,.cls-4{stroke:#57c32f;}.cls-4,.cls-5{stroke-linecap:round;}</style></defs><g id="Layer_2" data-name="Layer 2"><g id="Layer_1-2" data-name="Layer 1"><circle class="cls-1" cx="135.32" cy="162.75" r="135.32"/><circle class="cls-2" cx="163.56" cy="72.11" r="67.11"/><path class="cls-2" d="M100.39,49.43c13.67,7.13,23.25,1.32,23.25,1.32l5.88-3.07c1.67-.87,3.28-1.82,4.89-2.79,2.5-1.51,8.47-3.92,16.26.91,10.37,6.44,12.89-10.68,12.89-10.68s4.28-19.76-12.89-28.88"/><path class="cls-2" d="M188,66.26c-20-38.18,10-10.17,15.49-48.09"/><path class="cls-2" d="M230.67,72.11s-16.87,13.4-34.32,7.75"/><path class="cls-3" d="M125.46,65.2S167,73,166.69,109.33C166.69,109.33,120.13,122.07,125.46,65.2Z"/><path class="cls-3" d="M158.3,83.54c5.16-10.26,18.14-17.49,37.62-18.86,0,0-2.3,36.9-29,39.94"/><path class="cls-4" d="M165,95.54s4.67-10.11,13.43-13.69"/><path class="cls-4" d="M143.56,90.56c4,11.21,23.13,18.77,23.13,18.77s5.94,6.87,2.7,18.94"/><path class="cls-5" d="M67.56,203.09,46.6,218a6.37,6.37,0,0,1-8.88-1.51L8.33,175.09a6.35,6.35,0,0,1,1.48-8.86l20.9-15a6.38,6.38,0,0,1,8.9,1.49l29.45,41.46A6.37,6.37,0,0,1,67.56,203.09Z"/><path class="cls-5" d="M39.61,152.75l31.61-21.68c.59-.4,1.16-.82,1.72-1.25,2.67-2.07,15.87-10.5,48.2-5.71"/><path class="cls-5" d="M175.25,138.2s16.87,2,17.1,13.3c.16,7.4-4.69,10.9-8,12.43a12.07,12.07,0,0,1-5.06,1.07H121.14"/><path class="cls-5" d="M69.71,195.38s12.48-7.86,24.89-3.09c10.75,4.13,31.12,9.88,36.36,11.34.68.19,20.35,5.22,51.2-10.92,27.17-14.23,64.17-35.59,76-43.69a4.57,4.57,0,0,0,.6-7.09c-2-1.91-5.32-3.8-10.48-4.27a26.32,26.32,0,0,0-13.47,2.47l-48.4,22.65"/></g></g></svg>