<svg xmlns="http://www.w3.org/2000/svg" viewBox="0 0 299.08 313.33"><defs><style>.cls-1{fill:#ebf7e7;}.cls-2,.cls-3,.cls-4,.cls-5{fill:none;stroke-miterlimit:10;stroke-width:10px;}.cls-2,.cls-5{stroke:#fcc300;}.cls-3,.cls-4{stroke:#57c32f;}.cls-4,.cls-5{stroke-linecap:round;}</style></defs><g id="Layer_2" data-name="Layer 2"><g id="Layer_1-2" data-name="Layer 1"><circle class="cls-1" cx="159.86" cy="178.01" r="135.32"/><circle class="cls-2" cx="183.7" cy="81.67" r="76.67"/><path class="cls-2" d="M111.52,55.76c15.63,8.15,26.57,1.51,26.57,1.51l6.72-3.51c1.9-1,3.75-2.08,5.58-3.18,2.86-1.73,9.68-4.49,18.58,1C180.82,59,183.7,39.42,183.7,39.42s4.89-22.58-14.73-33"/><path class="cls-2" d="M211.63,75C188.8,31.37,223,63.37,229.32,20"/><path class="cls-2" d="M260.37,81.67S241.1,97,221.16,90.52"/><path class="cls-3" d="M140.17,73.77s47.48,8.93,47.1,50.43C187.27,124.2,134.08,138.75,140.17,73.77Z"/><path class="cls-3" d="M177.69,94.73c5.89-11.72,20.72-20,43-21.55,0,0-2.62,42.16-33.11,45.64"/><path class="cls-4" d="M185.36,108.44s5.34-11.55,15.35-15.64"/><path class="cls-4" d="M160.85,102.75c4.61,12.81,26.42,21.45,26.42,21.45s6.79,7.85,3.09,21.64"/><path class="cls-5" d="M74,231.31l-23.94,17a7.26,7.26,0,0,1-10.14-1.72L6.34,199.32A7.27,7.27,0,0,1,8,189.2l23.88-17.1a7.29,7.29,0,0,1,10.17,1.7l33.64,47.37A7.26,7.26,0,0,1,74,231.31Z"/><path class="cls-5" d="M42.09,173.8,78.2,149c.67-.46,1.32-.93,2-1.43,3.06-2.36,18.14-12,55.08-6.52"/><path class="cls-5" d="M197.05,157.18s19.27,2.32,19.54,15.19c.18,8.45-5.36,12.46-9.19,14.21a13.81,13.81,0,0,1-5.77,1.22H135.24"/><path class="cls-5" d="M76.48,222.51s14.26-9,28.43-3.54c12.28,4.73,35.55,11.3,41.54,13,.78.22,23.25,6,58.5-12.48,31-16.25,73.31-40.65,86.82-49.91a5.21,5.21,0,0,0,.69-8.1c-2.33-2.18-6.07-4.34-12-4.88a30,30,0,0,0-15.39,2.83l-55.29,25.87"/></g></g></svg>